<?xml version="1.0" encoding="UTF-8"?>
<!DOCTYPE svg PUBLIC "-//W3C//DTD SVG 1.1//EN" "http://www.w3.org/Graphics/SVG/1.1/DTD/svg11.dtd">
<!-- Creator: CorelDRAW 2018 (64-Bit) -->
<svg xmlns="http://www.w3.org/2000/svg" xml:space="preserve" width="530.295mm" height="287.599mm" version="1.1" style="shape-rendering:geometricPrecision; text-rendering:geometricPrecision; image-rendering:optimizeQuality; fill-rule:evenodd; clip-rule:evenodd"
viewBox="0 0 47832.56 25941.4"
 xmlns:xlink="http://www.w3.org/1999/xlink">
 <defs>
  <style type="text/css">
   <![CDATA[
    .fil0 {fill:#606C38}
   ]]>
  </style>
 </defs>
 <g id="Layer_x0020_1">
  <metadata id="CorelCorpID_0Corel-Layer"/>
  <path class="fil0" d="M30582.27 3742.73c-79.11,-21.95 -543.98,-232.96 -636.31,-289.93 -109.07,-67.3 -1355.68,-497.11 -1557.84,-465.87 -258.4,10.11 -614.7,100.8 -759.31,103.5 -1271.59,248.56 -619.19,655.38 -2521.27,66.8 -465.21,-94.26 -807.86,-424.3 -1492.56,-807.98 -306.26,-171.61 -701.35,-511.97 -905.75,-578.93 -86.83,-28.41 -1465.9,-317.25 -1823.8,-567.77 -509.67,-356.7 -1537.84,-1088.95 -2108.09,-1164.26 -1275.57,-168.42 -1568.59,259.08 -2834.97,500.54 -315.65,60.19 -2721.17,1083.12 -2815.37,1238.33l-406.34 233.96c-14.31,24.89 -451.99,327.13 -474.9,356.33 -1208.99,1540.42 -2332.81,2286.92 -4108.28,3043.35 -431.77,183.94 -895.52,185.62 -1556.7,545.16 -273.9,162.83 -1854.04,1511.34 -1789.31,1706.49 -180.13,133.97 -652.99,804.36 -788.37,1048.76 -689.33,1244.51 -2390.15,2640.7 -2650.57,3488.96 -163.52,258.35 -984.95,1494.03 -984.46,1649.74 -16.42,56.77 -33.27,112.38 -31.16,176.04 100.87,3.15 239.96,14.43 436.23,11.22 880.03,-28.1 844.74,-159.12 1088.49,-217.88 256.03,-100.52 650.82,-139.57 843.63,-136.37 616.51,10.24 381.51,-24.36 803.34,-51.6 216.67,-13.97 277.56,73.52 425.79,57.73 562.65,-59.89 1110.9,-382.29 1487.79,-496.13 174.42,-4.93 901.1,-337.46 1160.38,-396.04 440.57,-63.52 684.7,-278.25 1766.51,-250.3 564.63,14.58 1687.78,-371.66 2310.06,-245.51 773.87,156.88 1801.82,874.06 2961.12,1174.51 466.08,-25.56 1179.37,-64.54 1267.69,-106.24 847.13,-84.18 1665.69,-542.17 2026.57,-769.44 351.78,-13.2 864.61,-70.82 1106.62,-186.9 561.12,-120.37 2277.67,-983.86 2685.83,-940.4 159.78,17.01 790.47,-41.31 957.7,-9.3 149.3,28.59 638.68,-199.8 787.6,-168.54 203.17,42.68 308.39,27.49 474.08,64.94 367.03,82.95 1135.99,214.84 1624.42,250.9 640.44,248.52 1472.36,669.6 1751.17,622.42l1392.98 22.14c304.06,-28.85 381.88,-42.51 657.25,-100.42 109.85,-23.09 411.65,-100.1 486.04,-133.74 156.42,11.02 278.11,-58.44 401.32,-52.18 149.71,7.59 302.22,91.63 527.94,117.44 86.98,-20.05 434.07,-4 606.09,-72.63 146.89,-40.83 697.28,-199.32 1151.45,-306.57 223.37,-93.63 1305.12,224.35 1545.6,140.54 479.26,126.14 814.6,96.37 910.27,-125.77l673.52 -726.96c692,-481.7 911.46,-441.78 1376.88,-687.8 364.41,-192.63 1278.98,-859.93 1632.02,-770.6 676.45,171.19 434.57,225.65 1476.27,438.25 146.44,29.89 993.35,775.89 1104.52,828.49 249.75,118.16 432.54,-137.41 801.14,148.61 97.14,75.39 1303.96,590.97 1443.87,677.11 259.69,159.88 434.25,142.61 708.93,306 225.72,132.4 344.83,0.04 779.91,212.11 315.84,253.53 2029.05,400.7 1901.68,298.98 -131.19,-379.58 -249.4,-733.92 -588.98,-1270.2 -272.1,-108.04 -901.97,-826.93 -1077.47,-894.14 -436.73,-139.66 -398.8,-389.51 -687.19,-559.81 -246.21,-145.4 -351.83,-175.51 -573.91,-352.37 -270.79,-215.66 -921.41,-568.21 -1094.29,-757.35 -1342.45,-415.69 -1140.75,-964 -2271.87,-1730.09 -826.94,-472.11 -1072.59,-509.53 -1614.32,-474.12 -5.08,3.08 -988.34,113.07 -1219.7,129.64 -227.57,-69.45 -826.93,-51.84 -1032.92,-127.13 -2202.58,-805.11 -4034.73,-2362.08 -5136.65,-2667.73zm15985.38 16693.1c-560.7,407.65 -3134.04,1960.12 -3271.87,1931.75 -2528.45,1371.71 -4999.96,806.22 -6451.28,811.73 -232.74,19.03 -574.19,-33.59 -943.83,-92.45 -1237.08,260.88 -3161.17,862.03 -3737.05,985.58 -498.85,107.05 -2616.69,137.69 -3028.4,-76.1 -2733.3,-780.01 -2590.67,-646.43 -4855.08,-57.11 -1510.7,393.24 -2107.35,1377.27 -4435.86,2001.99 -572.62,8.55 -4629.75,-274.98 -7605.87,-1311.57 -2178.99,-758.95 -3522.49,-2310.35 -4089.65,-2312.5 -829.97,-461.52 -2887.93,-448.66 -3545.37,-1076.08 -371.02,-269.51 -2030.5,-1411.16 -2146.95,-1558.62 -1.1,-1.02 -1.82,-1.86 -2.16,-2.51 -391.12,-736.57 -2243.89,-2220.08 -2329.59,-3859.84 -333.04,-631.21 106.74,-1013.4 105.18,-1444.04 -0.15,-42.6 16.47,-93.79 38.23,-151.19 394.58,20.61 1062.9,20.79 1458.18,-29.22 714.04,-165.17 2340.71,242.53 2899.45,108.76 614.41,-78.61 2130.02,-560.11 3717.11,-429.34 616.56,109.69 2031.81,642.62 2704.91,694.63 2866.28,221.44 3481.56,1262.19 4518.08,1190.23 466.72,-32.4 439.32,-83.73 1004.78,-73.77l967.77 -10.55c481.43,23.88 898,89.21 1324.42,89.01 170.06,-0.08 683.35,-56.68 793.14,-69.09 362.43,-41 581.09,150.07 867.98,132.83 414.37,-24.89 491.09,-246.64 630.24,-277.6 -62.77,-15.31 -394.87,145.41 -511.23,111.28 -1340.63,-321.21 -1446,-184.22 -2865.54,-535.26 -293.39,-72.54 -571.54,-141.31 -976.14,-207.67 -112.43,-18.45 -1314.13,-443.68 -1361.57,-454.89l-1594.4 -891.89c705.95,32.63 1919.95,-19.21 2119.87,-105.14 236.08,-14.56 1095.41,-220.51 1553.86,-217.83 350.67,-182.01 1281.5,-192.32 1479.37,-392.54 275.43,-278.74 2086.99,-336.46 2496.16,-331.72 363.8,4.21 847.8,335.17 1358.34,494.3 1168.95,348.59 1596.64,1003.06 2179.88,997.36 854.32,199.58 570.24,468.83 1137.08,574.8 622.52,116.36 1186.85,310.39 2296.38,672.65 60.33,19.7 1747.76,899.74 2526.87,1134.07 185.68,55.85 401.69,219.99 440.85,220.67 1523.49,340.04 5754.46,1551.3 6379.14,1949.45 1382.63,255.74 1694.09,82.49 1672.75,-40.64 -22.2,-21.06 -1004.17,-176.23 -1736.19,-763.42 -399.34,-320.34 -1907.51,-685.81 -2365.61,-1052.13 -383,-306.25 -1305.3,-908.94 -1660.17,-1191.77 -1099.52,-876.27 -1964.71,-2224.92 -3084.74,-3174.86 -66.45,-56.36 -138.25,-104.63 -205.38,-156.82 489.24,30.79 529.93,-187.94 828.62,-169.52 122.04,7.52 239,106.92 393.47,85.37 72.1,57.73 366.66,187.96 474.04,226.74 269.2,97.23 345.38,119.99 643.88,165.99l1373.65 -104.09c272.96,78.42 1104.99,-471.41 1744.81,-915.2 482.46,-70.17 1244.7,-311.93 1609.24,-462.29 164.57,-67.88 267.69,-42.86 469.36,-120.43 147.83,-56.83 621.76,335.34 769.87,283.16 165.89,-58.39 1171.36,230.62 1329.35,198.55 400.73,144 3663.99,1106.43 4215.26,1094.25 249.63,212.5 1444.34,280.03 1638.04,100.7 161.71,461.68 350.8,927.6 948.49,1650.13l462.5 897.24c132.91,297.16 215.67,180.44 373.24,612.42 56.14,100.64 131.77,1043.44 124.58,1157.45 -15.43,244.31 -610.65,1998.84 -675.56,2039.87 -261.05,445.81 -312.7,1305.97 -588.87,1506.73zm-29558.33 -7897.05c62.92,-41.57 97.57,-66.68 97.8,-66.96 84.56,-97.52 1520.78,-1063.49 1718.69,-1623.69l562.87 -410.52c135.75,-139.13 664.97,-532.22 747.86,-623.5 928.38,-496.43 767.55,-577.6 1119.71,-851.41 395.97,-227.38 680.22,-347.84 1047.97,-579.83 1253.65,-619.9 962.97,-675.86 2041.57,-766.13 557.63,31.82 1066.45,373.77 1187.05,377.99 232.98,8.16 334.14,422.51 570.9,448.98 576.25,64.39 1285.72,959.23 1449.53,1017.21 178.17,74.69 733.01,837.23 1012.23,1056.36 102.45,80.42 658.13,678.44 1486.43,1364.87 8.07,8.15 8.89,17.76 -7.61,20.02 -519.67,-206.3 -1018.42,75.79 -1672.1,-197.11 -168.88,-70.32 -722.8,226.77 -965.24,180.84 -489.26,76.24 -754.79,-21.67 -847.33,-147.96l-768.16 -237.36c-692.65,-269.78 -990.52,-502.53 -1457.99,-639.35 -366,-107.13 -1280.76,-481.23 -1641.13,-427.11 -690.44,103.67 -209.54,317.97 -1271.69,448.44 -149.33,18.35 -856.97,427.77 -970.96,458.81 -256.03,69.72 -208.78,-26.56 -588.98,140.22 -100.21,43.96 -141.75,121.68 -285.62,172.16 -267.01,93.68 -152.81,63.94 -435.11,159.76 -231.96,77.67 -353.87,286.35 -800.06,411.38 -247.12,60.77 -419.2,13.67 -656.34,168.78 -3.55,1.63 -372.76,114.67 -674.29,145.12z"/>
 </g>
</svg>
